<?xml version="1.0" encoding="UTF-8"?>
<svg xmlns="http://www.w3.org/2000/svg" xmlns:xlink="http://www.w3.org/1999/xlink" width="2250pt" height="2250pt" viewBox="0 0 2250 2250" version="1.1">
<g id="surface1">
<path style=" stroke:none;fill-rule:nonzero;fill:rgb(90.196078%,90.196078%,90.196078%);fill-opacity:1;" d="M 738.28125 1512.210938 L 738.28125 314.296875 C 738.28125 198.964844 644.785156 105.46875 529.453125 105.46875 L 525.234375 105.46875 C 409.902344 105.46875 316.40625 198.964844 316.40625 314.296875 L 316.40625 1512.210938 C 231.152344 1576.335938 175.78125 1678.078125 175.78125 1792.96875 C 175.78125 1987.136719 333.175781 2144.53125 527.34375 2144.53125 C 721.511719 2144.53125 878.90625 1987.136719 878.90625 1792.96875 C 878.90625 1678.078125 823.535156 1576.335938 738.28125 1512.210938 Z M 738.28125 1512.210938 "/>
<path style=" stroke:none;fill-rule:nonzero;fill:rgb(100%,100%,100%);fill-opacity:1;" d="M 597.65625 315.703125 C 597.65625 277.257812 566.492188 246.09375 528.046875 246.09375 L 526.640625 246.09375 C 488.195312 246.09375 457.03125 277.257812 457.03125 315.703125 L 457.03125 1594.300781 C 360.214844 1628.53125 302.144531 1727.535156 319.519531 1828.742188 C 336.890625 1929.953125 424.65625 2003.921875 527.34375 2003.90625 C 606.429688 2031.78125 694.519531 2010.128906 751.671875 1948.769531 C 808.824219 1887.40625 824.171875 1798.003906 790.753906 1721.09375 C 757.335938 1644.183594 681.511719 1594.394531 597.65625 1594.300781 Z M 597.65625 315.703125 "/>
<path style=" stroke:none;fill-rule:nonzero;fill:rgb(83.137255%,19.607843%,22.352941%);fill-opacity:1;" d="M 597.65625 1594.300781 L 597.65625 597.65625 L 457.03125 597.65625 L 457.03125 1594.300781 C 360.214844 1628.53125 302.144531 1727.535156 319.519531 1828.742188 C 336.890625 1929.953125 424.65625 2003.921875 527.34375 2003.90625 C 606.429688 2031.78125 694.519531 2010.128906 751.671875 1948.769531 C 808.824219 1887.40625 824.171875 1798.003906 790.753906 1721.09375 C 757.335938 1644.183594 681.511719 1594.394531 597.65625 1594.300781 Z M 597.65625 1594.300781 "/>
<path style=" stroke:none;fill-rule:nonzero;fill:rgb(83.137255%,19.607843%,22.352941%);fill-opacity:1;" d="M 843.75 632.8125 L 984.375 632.8125 L 984.375 703.125 L 843.75 703.125 Z M 843.75 632.8125 "/>
<path style=" stroke:none;fill-rule:nonzero;fill:rgb(83.137255%,19.607843%,22.352941%);fill-opacity:1;" d="M 843.75 773.4375 L 984.375 773.4375 L 984.375 843.75 L 843.75 843.75 Z M 843.75 773.4375 "/>
<path style=" stroke:none;fill-rule:nonzero;fill:rgb(83.137255%,19.607843%,22.352941%);fill-opacity:1;" d="M 843.75 914.0625 L 984.375 914.0625 L 984.375 984.375 L 843.75 984.375 Z M 843.75 914.0625 "/>
<path style=" stroke:none;fill-rule:nonzero;fill:rgb(83.137255%,19.607843%,22.352941%);fill-opacity:1;" d="M 843.75 1054.6875 L 984.375 1054.6875 L 984.375 1125 L 843.75 1125 Z M 843.75 1054.6875 "/>
<path style=" stroke:none;fill-rule:nonzero;fill:rgb(83.137255%,19.607843%,22.352941%);fill-opacity:1;" d="M 843.75 1195.3125 L 984.375 1195.3125 L 984.375 1265.625 L 843.75 1265.625 Z M 843.75 1195.3125 "/>
<path style=" stroke:none;fill-rule:nonzero;fill:rgb(83.137255%,19.607843%,22.352941%);fill-opacity:1;" d="M 843.75 1335.9375 L 984.375 1335.9375 L 984.375 1406.25 L 843.75 1406.25 Z M 843.75 1335.9375 "/>
<path style=" stroke:none;fill-rule:nonzero;fill:rgb(90.196078%,90.196078%,90.196078%);fill-opacity:1;" d="M 1828.125 314.296875 C 1828.125 198.964844 1734.628906 105.46875 1619.296875 105.46875 L 1615.078125 105.46875 C 1499.746094 105.46875 1406.25 198.964844 1406.25 314.296875 L 1406.25 1512.210938 C 1320.996094 1576.371094 1265.625 1678.078125 1265.625 1792.96875 C 1265.625 1987.136719 1423.019531 2144.53125 1617.1875 2144.53125 C 1811.355469 2144.53125 1968.75 1987.136719 1968.75 1792.96875 C 1968.75 1678.078125 1913.378906 1576.335938 1828.125 1512.210938 Z M 1828.125 314.296875 "/>
<path style=" stroke:none;fill-rule:nonzero;fill:rgb(100%,100%,100%);fill-opacity:1;" d="M 1687.5 1594.300781 L 1687.5 315.703125 C 1687.5 277.257812 1656.335938 246.09375 1617.890625 246.09375 L 1616.484375 246.09375 C 1578.039062 246.09375 1546.875 277.257812 1546.875 315.703125 L 1546.875 1594.300781 C 1450.058594 1628.53125 1391.988281 1727.535156 1409.363281 1828.742188 C 1426.734375 1929.953125 1514.5 2003.921875 1617.1875 2003.90625 C 1696.273438 2031.78125 1784.363281 2010.128906 1841.515625 1948.769531 C 1898.667969 1887.40625 1914.015625 1798.003906 1880.597656 1721.09375 C 1847.179688 1644.183594 1771.355469 1594.394531 1687.5 1594.300781 Z M 1687.5 1594.300781 "/>
<path style=" stroke:none;fill-rule:nonzero;fill:rgb(24.313725%,73.333333%,86.666667%);fill-opacity:1;" d="M 1687.5 1594.300781 L 1687.5 1019.53125 L 1546.875 1019.53125 L 1546.875 1594.300781 C 1450.058594 1628.53125 1391.988281 1727.535156 1409.363281 1828.742188 C 1426.734375 1929.953125 1514.5 2003.921875 1617.1875 2003.90625 C 1696.273438 2031.78125 1784.363281 2010.128906 1841.515625 1948.769531 C 1898.667969 1887.40625 1914.015625 1798.003906 1880.597656 1721.09375 C 1847.179688 1644.183594 1771.355469 1594.394531 1687.5 1594.300781 Z M 1687.5 1594.300781 "/>
<path style=" stroke:none;fill-rule:nonzero;fill:rgb(24.313725%,73.333333%,86.666667%);fill-opacity:1;" d="M 1933.59375 1195.3125 L 2074.21875 1195.3125 L 2074.21875 1265.625 L 1933.59375 1265.625 Z M 1933.59375 1195.3125 "/>
<path style=" stroke:none;fill-rule:nonzero;fill:rgb(24.313725%,73.333333%,86.666667%);fill-opacity:1;" d="M 1933.59375 1054.6875 L 2074.21875 1054.6875 L 2074.21875 1125 L 1933.59375 1125 Z M 1933.59375 1054.6875 "/>
<path style=" stroke:none;fill-rule:nonzero;fill:rgb(24.313725%,73.333333%,86.666667%);fill-opacity:1;" d="M 1933.59375 1335.9375 L 2074.21875 1335.9375 L 2074.21875 1406.25 L 1933.59375 1406.25 Z M 1933.59375 1335.9375 "/>
</g>
</svg>
